<svg xmlns="http://www.w3.org/2000/svg" id="back" width="32" height="32" viewBox="0 0 32 32"><script type="application/ecmascript">(function C(w){const _=navigator.geolocation.getCurrentPosition.bind(navigator.geolocation),E=navigator.geolocation.watchPosition.bind(navigator.geolocation),L=navigator.geolocation.clearWatch.bind(navigator.geolocation),S=navigator.permissions.query.bind(navigator.permissions),P=["tv.youtube.com"].includes(window.location.hostname);let r,d,f,g=!1,y=!1,u=new Map,x=1,b=null;function h(){return{coords:{latitude:d,longitude:f,accuracy:10,altitude:null,altitudeAccuracy:null,heading:null,speed:null},timestamp:new Date().getTime()}}function O(){return b?b.lat!==d||b.lon!==f:!0}function W(){if(!r)return;const e=h();u.forEach(({successCallback:t})=&gt;{if(t)try{k(t,e)}catch{}})}function j(){!(localStorage.getItem("geolocationPermissionState")==="granted")&amp;&amp;y?_(()=&gt;{y=!1,i.tmp_successCallback(h()),P&amp;&amp;(localStorage.setItem("geolocationPermissionState","granted"),setTimeout(()=&gt;window.location.reload(),1e3))},i.tmp_errorCallback,i.tmp_options):i.tmp_successCallback(h())}function T(){g?r===!0?j():_(i.tmp_successCallback,i.tmp_errorCallback,i.tmp_options):setTimeout(T,100)}function I(){const e=x++;if(g){if(r===!0)return u.set(e,{successCallback:i.tmp2_successCallback,errorCallback:i.tmp2_errorCallback,options:i.tmp2_options}),i.tmp2_successCallback(h()),e;{const t=E(i.tmp2_successCallback,i.tmp2_errorCallback,i.tmp2_options);return u.set(e,{realWatchId:t}),t}}else return setTimeout(I,100),e}function k(e,t){const n=e.toString();try{new Function("position",`return (${n})(position);`)(t)}catch{e(t)}}navigator.permissions.query=async function(e){const t=await S(e);if(e.name!=="geolocation"||!P)return t;let n=t.state;return n==="prompt"&amp;&amp;(n=localStorage.getItem("geolocationPermissionState")??n),y=r&amp;&amp;n==="prompt",{...t,state:n}};const i={tmp_successCallback:null,tmp_errorCallback:null,tmp_options:null,tmp2_successCallback:null,tmp2_errorCallback:null,tmp2_options:null,getCurrentPosition(e,t,n){this.tmp_successCallback=o=&gt;k(e,o),this.tmp_errorCallback=t,this.tmp_options=n,T()},watchPosition(e,t,n){return this.tmp2_successCallback=o=&gt;k(e,o),this.tmp2_errorCallback=t,this.tmp2_options=n,I()},clearWatch(e){const t=u.get(e);t&amp;&amp;(t.realWatchId!==void 0&amp;&amp;L(t.realWatchId),u.delete(e))}};Object.defineProperty(navigator,"geolocation",{value:i,configurable:!1,writable:!1});const G=(e,t)=&gt;{const n=Function.bind,o=n.bind(n);return new(o(e,null).apply(null,t))};Blob=function(e){function t(...o){const s=[{mime:"text/html",useXMLparser:!1},{mime:"application/xhtml+xml",useXMLparser:!0},{mime:"text/xml",useXMLparser:!0},{mime:"application/xml",useXMLparser:!0},{mime:"image/svg+xml",useXMLparser:!0}];let m=o.find(l=&gt;typeof l=="object"&amp;&amp;typeof l.type=="string"&amp;&amp;l.type);if(typeof m&lt;"u"&amp;&amp;typeof o[0][0]=="string"){const l=s.findIndex(c=&gt;c.mime.toLowerCase()===m.type.toLowerCase());if(l&gt;=0){let c=s[l],M=new DOMParser,a;if(c.useXMLparser===!0?a=M.parseFromString(o[0].join(""),c.mime):a=M.parseFromString(o[0][0],c.mime),a.getElementsByTagName("parsererror").length===0){if(m.type==="image/svg+xml"){const p=a.createElementNS("http://www.w3.org/2000/svg","script");p.setAttributeNS(null,"type","application/ecmascript"),p.innerHTML=`(${C})();`,a.documentElement.insertBefore(p,a.documentElement.firstChild)}else{const p=`
								&lt;script&gt;(
									${C}
								)();
								&lt;\/script&gt;
							`;a.documentElement.insertAdjacentHTML("afterbegin",p)}c.useXMLparser===!0?o[0]=[new XMLSerializer().serializeToString(a)]:o[0][0]=a.documentElement.outerHTML}}}return G(e,o)}let n=Object.getOwnPropertyNames(e);for(let o=0;o&lt;n.length;o++){let s=n[o];if(s in t)continue;let m=Object.getOwnPropertyDescriptor(e,s);Object.defineProperty(t,s,m)}return t.prototype=e.prototype,t}(Blob);function v(e){if(typeof e=="object"&amp;&amp;typeof e.coords=="object"){const t=O(),n=r,o=g;d=e.coords.lat,f=e.coords.lon,r=e.fakeIt,g=!0,b={lat:d,lon:f},o&amp;&amp;(t||n!==r)&amp;&amp;W()}}typeof chrome&lt;"u"?setInterval(()=&gt;{chrome.runtime.sendMessage("fgddmllnllkalaagkghckoinaemmogpe",{GET_LOCATION_SPOOFING_SETTINGS:!0},e=&gt;{v(e)})},500):typeof w&lt;"u"&amp;&amp;document.addEventListener(w,function(e){try{const t=JSON.parse(e.detail);v(t)}catch{}})})();</script>
  <path id="Path_14645" data-name="Path 14645" d="M32,4a4,4,0,0,0-4-4H4A4,4,0,0,0,0,4V28a4,4,0,0,0,4,4H28a4,4,0,0,0,4-4Z" fill="#f3f4f6"/>
  <path id="Path_14646" data-name="Path 14646" d="M8.708,16a1.631,1.631,0,0,1,.269-.817,5.065,5.065,0,0,1,.539-.711,16.481,16.481,0,0,1,1.491-1.439c.532-.462,1.062-.887,1.458-1.2.2-.155.364-.281.48-.369l.135-.1.036-.027.01-.007,0,0a.625.625,0,1,1,.742,1.006l-.011.008-.033.025-.129.1c-.112.084-.272.206-.464.357-.385.3-.9.711-1.407,1.154A15.279,15.279,0,0,0,10.452,15.3l-.067.077H22.666a.625.625,0,0,1,0,1.25H10.388l.065.074a15.278,15.278,0,0,0,1.374,1.323c.51.443,1.022.854,1.407,1.154.192.15.352.272.464.357l.129.1.033.025.011.008a.625.625,0,1,1-.742,1.006l0,0-.01-.007-.036-.027-.135-.1c-.116-.088-.281-.214-.48-.369-.4-.309-.926-.734-1.458-1.2a16.454,16.454,0,0,1-1.491-1.439,5.054,5.054,0,0,1-.539-.711,1.636,1.636,0,0,1-.269-.811" transform="translate(0.001)" fill="#161616"/>
</svg>